# xmcd
#
# Track frame offsets:
#	150
#	13337
#	27230
#	37797
#	49537
#	62780
#	73877
#	87607
#	95677
#	108605
#	119567
#	130427
#	142842
#	154942
#	167997
#	180255
#	191702
#	205202
#	216925
#	226592
#	239217
#	249972
#
# Disc length: 3454 seconds
#
# Revision: 0
# Processed by: cddbd v1.4PL0 Copyright (c) Steve Scherf et al.
# Submitted via: dBpowerAMP V4.0
#
DISCID=440d7c16
DTITLE=Johnny Otis - creepin with the cats
DYEAR=1991
DGENRE=blues
TTITLE0=midnight creeper part 1
TTITLE1=driftin' blues
TTITLE2=ali baba's boogie
TTITLE3=let the sunshine in my life
TTITLE4=hey, hey, hey, hey
TTITLE5=dog face boy part 1
TTITLE6=dog face boy part 2
TTITLE7=show me the way to go home
TTITLE8=sleepy shines butt shuffle
TTITLE9=organ grinder's swing
TTITLE10=someday
TTITLE11=sadie
TTITLE12=butterball
TTITLE13=wa wa part 1
TTITLE14=my eyes are full of tears
TTITLE15=turtle dove
TTITLE16=groove juice
TTITLE17=trouble on my mind
TTITLE18=number 69, number 21
TTITLE19=the creeper returns
TTITLE20=stop, look and love me
TTITLE21=the night is young (and you're so fine)
EXTD=
EXTT0=
EXTT1=
EXTT2=
EXTT3=
EXTT4=
EXTT5=
EXTT6=
EXTT7=
EXTT8=
EXTT9=
EXTT10=
EXTT11=
EXTT12=
EXTT13=
EXTT14=
EXTT15=
EXTT16=
EXTT17=
EXTT18=
EXTT19=
EXTT20=
EXTT21=
PLAYORDER=
